<svg width="963" height="176" fill="none" xmlns="http://www.w3.org/2000/svg"><path d="M120.433 25.504c15.03 0 26.586 3.261 34.668 9.783 8.224 6.523 12.336 15.172 12.336 25.948 0 4.254-.638 8.72-1.914 13.4-3.97 14.179-11.84 24.671-23.608 31.477-11.627 6.806-26.374 10.209-44.24 10.209H75.77l-7.232 25.736c-.283.85-.425 1.985-.425 3.403 0 1.985.425 3.615 1.276 4.891.993 1.277 2.41 2.765 4.254 4.467 1.56 1.418 2.623 2.481 3.19 3.19.567.709.851 1.56.851 2.552 0 2.411-1.134 4.112-3.403 5.105-2.269.992-5.6 1.489-9.996 1.489H10.899c-3.686 0-6.451-.638-8.295-1.914-1.843-1.418-2.481-3.333-1.914-5.743.284-1.276.85-2.269 1.702-2.978.709-.85 1.843-1.772 3.403-2.765 2.41-1.418 4.324-2.906 5.742-4.466 1.418-1.56 2.552-3.97 3.403-7.231l25.948-91.669c.567-1.843.85-3.615.85-5.317 0-1.56-.283-2.836-.85-3.828-.425-1.135-1.063-2.41-1.914-3.829-1.276-1.843-1.914-3.332-1.914-4.466 0-.425.142-1.205.425-2.34.567-1.843 1.773-3.12 3.616-3.828 1.985-.85 4.962-1.276 8.933-1.276h70.399zm-5.53 45.302c1.56-5.246 2.34-9.854 2.34-13.824 0-8.224-3.828-12.336-11.485-12.336h-9.571L81.086 97.18h9.358c5.956 0 10.776-1.844 14.463-5.53 3.828-3.829 7.16-10.776 9.996-20.844zM255.408 54.642c7.941 0 14.25 2.41 18.93 7.231 4.82 4.821 7.231 10.777 7.231 17.866 0 2.694-.284 5.175-.851 7.444-1.418 5.814-4.112 10.28-8.082 13.4-3.97 3.119-8.72 4.679-14.25 4.679-5.388 0-9.5-1.276-12.336-3.829-2.694-2.552-5.104-5.955-7.231-10.209-1.135-2.41-2.198-4.183-3.191-5.317-.992-1.134-2.126-1.701-3.403-1.701-1.418 0-2.694.567-3.828 1.701-.993 1.134-1.914 3.12-2.765 5.955l-16.377 53.172c-.283.709-.425 1.773-.425 3.191 0 1.843.496 3.403 1.489 4.679 1.134 1.134 2.623 2.268 4.466 3.403 1.702 1.134 2.836 2.056 3.403 2.765.567.709.78 1.63.638 2.765-.283 1.843-1.347 3.19-3.19 4.041-1.702.85-4.679 1.276-8.933 1.276h-54.448c-3.687 0-6.31-.567-7.87-1.702-1.701-1.276-2.339-2.907-1.914-4.892.567-1.701 2.056-3.19 4.467-4.466 2.127-1.134 3.899-2.481 5.317-4.041 1.418-1.56 2.623-4.041 3.616-7.444L174.8 83.142c.283-.709.425-1.701.425-2.977 0-1.56-.354-2.765-1.063-3.616-.567-.85-1.56-1.914-2.978-3.19-1.418-1.135-2.41-2.127-2.978-2.978-.567-.85-.638-1.985-.212-3.403.851-3.261 5.317-6.097 13.399-8.508 8.082-2.552 16.519-3.828 25.31-3.828 5.813 0 10.634 1.347 14.463 4.041 3.828 2.552 6.309 6.239 7.444 11.06 6.806-10.067 15.739-15.101 26.798-15.101zM356.457 54.642c19.283 0 33.462 3.9 42.537 11.698 9.216 7.798 13.825 18.007 13.825 30.627 0 4.254-.567 9.004-1.702 14.25-2.694 11.627-7.727 21.836-15.101 30.627-7.373 8.649-16.447 15.384-27.224 20.205-10.634 4.679-22.19 7.019-34.668 7.019-19.709 0-34.313-3.899-43.813-11.698-9.359-7.94-14.038-18.433-14.038-31.478 0-4.395.567-9.287 1.702-14.675 2.694-11.06 7.798-20.843 15.313-29.351 7.657-8.65 16.944-15.314 27.862-19.993 11.06-4.82 22.829-7.231 35.307-7.231zm-.639 18.93c-2.977 0-6.167 2.693-9.57 8.081-3.262 5.247-7.161 15.243-11.698 29.989-4.538 14.747-6.806 25.097-6.806 31.053 0 3.119.496 5.246 1.489 6.38.992.993 2.339 1.489 4.041 1.489 2.977.284 6.026-2.269 9.145-7.657 3.261-5.388 7.302-15.88 12.123-31.477 4.396-13.754 6.594-23.75 6.594-29.99 0-2.977-.497-5.033-1.489-6.167-.851-1.135-2.127-1.702-3.829-1.702zM506.667 28.694c-7.798 0-12.903 4.041-15.313 12.123-.568 1.702-.851 3.616-.851 5.743 0 3.12.638 5.742 1.914 7.87 1.276 1.984 3.119 2.977 5.53 2.977h45.94c18.717 0 28.075 5.955 28.075 17.866 0 2.977-.496 5.955-1.489 8.933l-18.716 60.828c-.426 1.702-.638 3.191-.638 4.467 0 1.843.354 3.332 1.063 4.466.709.993 1.702 1.985 2.978 2.978.992.992 1.701 1.843 2.127 2.552.425.567.496 1.347.212 2.34-.709 1.843-2.126 3.19-4.253 4.041-2.127.85-5.388 1.276-9.784 1.276h-48.493c-3.686 0-6.38-.567-8.082-1.702-1.701-1.276-2.269-2.907-1.701-4.892.567-1.701 2.056-3.19 4.466-4.466 2.127-1.134 3.899-2.481 5.317-4.041 1.418-1.56 2.623-4.041 3.616-7.444l20.631-68.486h-27.437l-21.056 68.911c-.425 1.702-.638 3.191-.638 4.467 0 1.843.354 3.332 1.063 4.466.709.993 1.702 1.985 2.978 2.978.992.992 1.701 1.843 2.127 2.552.425.567.496 1.347.212 2.34-.708 1.843-2.126 3.19-4.253 4.041-2.127.85-5.388 1.276-9.784 1.276h-48.493c-3.686 0-6.38-.567-8.082-1.702-1.701-1.276-2.268-2.907-1.701-4.892.567-1.701 2.056-3.19 4.466-4.466 2.127-1.134 3.899-2.481 5.317-4.041 1.418-1.56 2.624-4.041 3.616-7.444l16.59-54.448a20.711 20.711 0 001.063-6.594c0-2.835-.638-5.033-1.914-6.593-1.134-1.701-2.907-3.545-5.317-5.53-1.56-1.276-2.765-2.34-3.616-3.19-.709-.993-1.063-2.127-1.063-3.403-.142-2.694.779-4.608 2.765-5.743 2.126-1.134 6.097-1.701 11.91-1.701h5.53c-.709-2.694-1.064-5.955-1.064-9.784 0-4.253.568-8.224 1.702-11.91 5.672-17.157 22.474-25.735 50.407-25.735 8.507 0 16.731 1.276 24.672 3.828 7.94 2.41 16.377 6.239 25.31 11.485 1.843-5.672 4.891-10.138 9.145-13.4C557.925 8.632 562.604 7 567.708 7c6.381 0 11.344 1.985 14.889 5.955 3.544 3.829 5.317 8.437 5.317 13.825 0 2.127-.355 4.395-1.064 6.806-1.701 5.388-4.679 9.57-8.933 12.549-4.112 2.977-9.074 4.466-14.888 4.466-3.828 0-7.727-.85-11.698-2.552-3.97-1.844-9.145-4.538-15.526-8.082-6.38-3.687-11.768-6.452-16.164-8.295-4.396-1.985-8.72-2.978-12.974-2.978z" fill="#fff"/><path d="M666.648 57.407c2.694 0 4.75.567 6.168 1.701 1.56 1.135 2.34 2.695 2.34 4.68 0 .567-.142 1.56-.426 2.977-1.843 6.239-6.097 9.358-12.761 9.358h-12.336l-15.952 52.534a20.715 20.715 0 00-1.063 6.594c0 2.552.709 4.324 2.127 5.317 1.418.992 3.403 1.489 5.955 1.489 2.269 0 5.105-.284 8.508-.851 1.701-.426 3.19-.638 4.466-.638.993 0 1.702.354 2.127 1.063.567.567.851 1.347.851 2.34.141 2.836-1.985 6.31-6.381 10.421-4.254 3.971-10.067 7.445-17.44 10.422-7.373 2.836-15.526 4.254-24.459 4.254-9.642 0-17.37-2.198-23.183-6.593-5.814-4.396-8.72-10.422-8.72-18.079 0-3.545.567-6.948 1.701-10.209l13.612-42.112c.709-2.41 1.063-4.325 1.063-5.743 0-2.835-.709-5.246-2.126-7.23-1.277-1.986-3.12-4.042-5.53-6.169-2.127-1.985-3.616-3.616-4.467-4.892-.851-1.418-1.063-3.048-.638-4.891.567-1.844 1.773-3.262 3.616-4.254 1.843-.993 4.75-1.49 8.72-1.49h11.911l13.399-13.398c4.679-4.68 8.933-7.94 12.761-9.784 3.97-1.843 9.075-2.765 15.314-2.765 8.932 0 13.399 3.403 13.399 10.21 0 2.126-.284 4.111-.851 5.954l-2.977 9.784h11.272zM905.85 40.817c.993-21.127 11.698-31.69 32.116-31.69 7.798 0 13.825 1.701 18.078 5.104 4.396 3.403 6.594 8.153 6.594 14.25 0 6.24-2.198 13.329-6.594 21.27l-33.392 59.552c-1.701 3.261-3.474 5.6-5.317 7.018-1.701 1.277-3.828 1.915-6.38 1.915-5.53 0-8.154-3.333-7.87-9.997l2.765-67.422zm-.638 83.374c5.672 0 10.422 1.914 14.25 5.742 3.97 3.829 5.955 8.508 5.955 14.038 0 3.828-1.063 7.586-3.19 11.272-1.985 3.687-4.821 6.735-8.508 9.146-3.544 2.268-7.585 3.403-12.123 3.403-5.53 0-10.209-1.914-14.037-5.743-3.828-3.828-5.814-8.507-5.955-14.037 0-3.829.992-7.586 2.977-11.273 1.985-3.686 4.75-6.664 8.295-8.932 3.687-2.411 7.799-3.616 12.336-3.616z" fill="#fff"/><path d="M846.226 153.232a74.724 74.724 0 01-52.834 21.884v-74.718l52.834 52.834z" fill="#30CC9A"/><path d="M842.422 137.422a80.497 80.497 0 0010.011-101.645A80.5 80.5 0 10785.5 161v-55.543a24.96 24.96 0 01-24.478-20.088 24.959 24.959 0 0131.723-28.751 24.958 24.958 0 0110.402 41.53l39.275 39.274z" fill="#30CC9A"/></svg>
