<svg width="140" height="26" fill="none" xmlns="http://www.w3.org/2000/svg"><path d="M17.453 3.711c2.187 0 3.868.475 5.044 1.424 1.197.949 1.795 2.207 1.795 3.775a7.41 7.41 0 01-.278 1.95c-.578 2.063-1.723 3.59-3.436 4.58-1.691.99-3.837 1.486-6.437 1.486h-3.187L9.9 20.67a1.61 1.61 0 00-.061.495c0 .29.061.527.185.712.145.186.351.403.62.65.226.206.38.361.463.464a.576.576 0 01.124.372c0 .35-.165.598-.495.742-.33.145-.815.217-1.455.217H1.515c-.537 0-.94-.093-1.207-.278-.269-.207-.361-.485-.279-.836a.757.757 0 01.248-.433c.103-.124.268-.258.495-.402.35-.207.63-.424.835-.65.207-.227.372-.578.496-1.053L5.878 7.332c.083-.268.124-.526.124-.774 0-.227-.041-.412-.124-.557a3.489 3.489 0 00-.278-.557c-.186-.268-.279-.485-.279-.65 0-.062.02-.175.062-.34a.835.835 0 01.526-.557c.289-.124.722-.186 1.3-.186h10.244zm-.805 6.592c.227-.764.34-1.434.34-2.012 0-1.196-.557-1.795-1.67-1.795h-1.393l-2.198 7.644h1.362c.867 0 1.568-.268 2.104-.804.558-.557 1.042-1.568 1.455-3.033zM37.093 7.95c1.155 0 2.073.352 2.754 1.053.701.702 1.052 1.568 1.052 2.6 0 .392-.041.753-.124 1.083-.206.846-.598 1.496-1.176 1.95-.577.453-1.268.68-2.073.68-.784 0-1.382-.185-1.795-.557-.392-.371-.743-.866-1.052-1.485-.165-.35-.32-.609-.465-.774-.144-.165-.309-.247-.495-.247a.77.77 0 00-.557.247c-.144.165-.278.454-.402.867l-2.383 7.737c-.041.103-.062.258-.062.464 0 .268.072.495.217.68.165.166.381.33.65.496.247.165.412.299.495.402a.516.516 0 01.093.402c-.042.269-.196.465-.465.589-.247.123-.68.185-1.3.185h-7.922c-.536 0-.918-.082-1.145-.247-.248-.186-.34-.423-.279-.712.083-.248.3-.464.65-.65.31-.165.568-.361.774-.588.206-.227.382-.588.526-1.083l2.754-8.944c.042-.103.062-.248.062-.433 0-.227-.051-.403-.154-.526a2.729 2.729 0 00-.434-.465 2.11 2.11 0 01-.433-.433c-.082-.124-.093-.289-.03-.495.123-.475.773-.887 1.949-1.238a12.156 12.156 0 013.683-.557c.846 0 1.547.196 2.104.588.557.371.918.908 1.083 1.61.99-1.466 2.29-2.198 3.9-2.198zM51.796 7.95c2.806 0 4.869.568 6.19 1.703 1.34 1.135 2.011 2.62 2.011 4.456 0 .62-.083 1.31-.248 2.074-.392 1.692-1.124 3.177-2.197 4.456-1.073 1.259-2.393 2.239-3.961 2.94-1.547.681-3.229 1.022-5.045 1.022-2.867 0-4.992-.568-6.375-1.702-1.361-1.156-2.042-2.683-2.042-4.58 0-.64.082-1.352.247-2.136a9.894 9.894 0 012.229-4.27 11.265 11.265 0 014.054-2.91 12.716 12.716 0 015.137-1.052zm-.093 2.755c-.433 0-.897.392-1.393 1.176-.474.764-1.041 2.218-1.702 4.364-.66 2.145-.99 3.652-.99 4.518 0 .454.072.764.217.929.144.144.34.216.588.216.433.041.877-.33 1.33-1.114.475-.784 1.063-2.31 1.764-4.58.64-2.001.96-3.456.96-4.364 0-.433-.072-.732-.217-.897-.124-.165-.31-.248-.557-.248zM73.653 4.175c-1.135 0-1.878.588-2.229 1.764a2.635 2.635 0 00-.123.836c0 .454.093.835.278 1.145a.9.9 0 00.805.433h6.685c2.723 0 4.085.867 4.085 2.6 0 .433-.072.866-.217 1.3l-2.723 8.85a2.727 2.727 0 00-.093.65c0 .269.051.485.154.65.104.145.248.29.434.434.144.144.247.268.31.371.061.083.072.196.03.34-.103.269-.31.465-.619.589-.31.123-.784.185-1.423.185H71.95c-.537 0-.929-.082-1.176-.247-.248-.186-.33-.423-.248-.712.082-.248.3-.464.65-.65.31-.165.567-.361.774-.588.206-.227.381-.588.526-1.083l3.002-9.965h-3.993l-3.063 10.027a2.728 2.728 0 00-.093.65c0 .268.051.484.154.65.104.144.248.288.434.433.144.144.247.268.31.371.061.083.071.196.03.34-.103.269-.31.465-.619.589-.31.123-.784.185-1.423.185H60.16c-.537 0-.929-.082-1.176-.247-.248-.186-.33-.423-.248-.712.083-.248.3-.464.65-.65.31-.165.567-.361.773-.588.207-.227.382-.588.527-1.083l2.414-7.923c.103-.31.154-.63.154-.96 0-.412-.093-.732-.278-.959-.165-.247-.423-.515-.774-.804a7.386 7.386 0 01-.526-.465.83.83 0 01-.155-.495c-.02-.392.114-.67.403-.835.309-.165.887-.248 1.733-.248h.804c-.103-.392-.154-.866-.154-1.423 0-.62.082-1.197.247-1.734.825-2.496 3.27-3.744 7.335-3.744 1.238 0 2.434.186 3.59.557 1.155.35 2.383.908 3.682 1.671.269-.825.712-1.475 1.331-1.95.62-.474 1.3-.711 2.043-.711.928 0 1.65.288 2.166.866.516.557.774 1.228.774 2.012 0 .31-.052.64-.155.99-.248.784-.68 1.393-1.3 1.826-.598.433-1.32.65-2.166.65a4.3 4.3 0 01-1.702-.372c-.578-.268-1.331-.66-2.26-1.176-.928-.536-1.712-.938-2.352-1.207-.639-.288-1.268-.433-1.887-.433z" fill="#000"/><path d="M96.931 8.353c.392 0 .691.083.898.248.227.165.34.392.34.68 0 .083-.02.228-.062.434-.268.908-.887 1.362-1.857 1.362h-1.795l-2.32 7.644c-.104.31-.155.629-.155.959 0 .371.103.63.309.774.206.144.495.216.867.216.33 0 .742-.04 1.237-.123.248-.062.465-.093.65-.093.145 0 .248.051.31.154a.46.46 0 01.124.34c.02.413-.29.919-.929 1.517-.619.578-1.465 1.084-2.538 1.517-1.072.412-2.259.619-3.559.619-1.402 0-2.527-.32-3.373-.96-.846-.64-1.269-1.516-1.269-2.63 0-.516.083-1.011.248-1.486l1.98-6.127c.104-.351.155-.63.155-.836 0-.413-.103-.763-.31-1.052a4.433 4.433 0 00-.804-.898c-.31-.289-.526-.526-.65-.711-.123-.207-.154-.444-.093-.712.083-.268.258-.475.527-.62.268-.144.69-.216 1.269-.216h1.733l1.95-1.95c.68-.68 1.299-1.155 1.856-1.423.578-.268 1.32-.402 2.228-.402 1.3 0 1.95.495 1.95 1.485 0 .31-.041.598-.124.867l-.433 1.423h1.64zM131.737 5.94c.144-3.075 1.702-4.612 4.673-4.612 1.135 0 2.012.248 2.631.743.639.495.959 1.186.959 2.073 0 .908-.32 1.94-.959 3.095l-4.859 8.665c-.248.475-.506.815-.774 1.022-.247.185-.557.278-.928.278-.805 0-1.187-.485-1.145-1.454l.402-9.81zm-.093 12.13c.825 0 1.517.28 2.074.836a2.73 2.73 0 01.866 2.043c0 .557-.155 1.104-.464 1.64-.289.537-.702.98-1.238 1.33-.516.331-1.104.496-1.764.496-.805 0-1.485-.278-2.043-.836-.557-.557-.845-1.238-.866-2.042 0-.557.144-1.104.433-1.64.289-.537.691-.97 1.207-1.3a3.212 3.212 0 011.795-.526z" fill="#000"/><path d="M123.061 22.296a10.866 10.866 0 01-7.687 3.185V14.609l7.687 7.687z" fill="#30CC9A"/><path d="M122.508 19.996a11.716 11.716 0 001.456-14.79A11.708 11.708 0 00109.743.892a11.71 11.71 0 00-7.006 13.106 11.708 11.708 0 0011.488 9.429v-8.082A3.633 3.633 0 01111.022 10a3.636 3.636 0 014.257-1.763 3.634 3.634 0 012.56 3.831 3.63 3.63 0 01-1.046 2.212l5.715 5.715z" fill="#30CC9A"/></svg>
